<svg width="176" height="27" viewBox="0 0 176 27" fill="none" xmlns="http://www.w3.org/2000/svg">
  <path id="movieflixLogo" d="M6.9209 1.11719L13.3125 19.1641L19.6699 1.11719H26.4033V26H21.2593V19.1982L21.772 7.45752L15.0557 26H11.5352L4.83594 7.47461L5.34863 19.1982V26H0.22168V1.11719H6.9209ZM51.3203 14.1226C51.3203 16.5721 50.8874 18.7197 50.0215 20.5654C49.1556 22.4111 47.9137 23.8353 46.2959 24.8379C44.6895 25.8405 42.8438 26.3418 40.7588 26.3418C38.6966 26.3418 36.8566 25.8462 35.2388 24.855C33.6209 23.8638 32.3677 22.451 31.479 20.6167C30.5903 18.771 30.1403 16.6519 30.1289 14.2593V13.0288C30.1289 10.5793 30.5675 8.42594 31.4448 6.56885C32.3335 4.70036 33.5811 3.27051 35.1875 2.2793C36.8053 1.27669 38.651 0.775391 40.7246 0.775391C42.7982 0.775391 44.6382 1.27669 46.2446 2.2793C47.8625 3.27051 49.11 4.70036 49.9873 6.56885C50.876 8.42594 51.3203 10.5736 51.3203 13.0117V14.1226ZM46.125 12.9946C46.125 10.3856 45.6579 8.40316 44.7236 7.04736C43.7894 5.69157 42.4564 5.01367 40.7246 5.01367C39.0042 5.01367 37.6769 5.68587 36.7427 7.03027C35.8084 8.36328 35.3356 10.3229 35.3242 12.9092V14.1226C35.3242 16.6632 35.7913 18.6343 36.7256 20.0356C37.6598 21.437 39.0042 22.1377 40.7588 22.1377C42.4792 22.1377 43.8008 21.4655 44.7236 20.1211C45.6465 18.7653 46.1136 16.7943 46.125 14.208V12.9946ZM63.8643 19.8306L69.5039 1.11719H75.2119L66.5474 26H61.1982L52.5679 1.11719H58.2588L63.8643 19.8306ZM83.022 26H77.895V1.11719H83.022V26ZM102.761 15.2163H92.917V21.8813H104.47V26H87.79V1.11719H104.436V5.27002H92.917V11.2002H102.761V15.2163ZM122.448 15.8315H112.604V26H107.478V1.11719H123.679V5.27002H112.604V11.6958H122.448V15.8315ZM131.779 21.8813H142.666V26H126.652V1.11719H131.779V21.8813ZM151.074 26H145.947V1.11719H151.074V26ZM165.053 9.69629L169.719 1.11719H175.615L168.369 13.4561L175.803 26H169.838L165.053 17.2842L160.268 26H154.304L161.738 13.4561L154.492 1.11719H160.388L165.053 9.69629Z" fill="#FF0000"/>
</svg>
