<svg width="190" height="32" viewBox="0 0 190 32" fill="none" xmlns="http://www.w3.org/2000/svg">
<path d="M6.71402 0.427807L13.1197 23.016L19.4912 0.427807H26.2395V31.5722H21.0841V23.0588L21.5979 8.36364L14.8668 31.5722H11.3385L4.62445 8.38503L5.13828 23.0588V31.5722H0V0.427807H6.71402Z" fill="#FF0000"/>
<path d="M52.9654 16.7059C52.9654 19.7718 52.5315 22.4599 51.6637 24.7701C50.7959 27.0802 49.5513 28.8627 47.9299 30.1176C46.3199 31.3725 44.4701 32 42.3806 32C40.3138 32 38.4698 31.3797 36.8483 30.139C35.2269 28.8984 33.9709 27.1301 33.0803 24.8342C32.1896 22.5241 31.7386 19.8717 31.7272 16.877V15.3369C31.7272 12.2709 32.1668 9.57576 33.046 7.25134C33.9366 4.91266 35.187 3.12299 36.797 1.88235C38.4184 0.627451 40.2682 0 42.3463 0C44.4245 0 46.2685 0.627451 47.8785 1.88235C49.4999 3.12299 50.7503 4.91266 51.6295 7.25134C52.5201 9.57576 52.9654 12.2638 52.9654 15.3155V16.7059ZM47.7586 15.2941C47.7586 12.0285 47.2905 9.54724 46.3542 7.85027C45.4179 6.1533 44.0819 5.30481 42.3463 5.30481C40.6221 5.30481 39.2919 6.14617 38.3556 7.82888C37.4193 9.49733 36.9454 11.9501 36.934 15.1872V16.7059C36.934 19.8859 37.4021 22.3529 38.3384 24.107C39.2748 25.861 40.6221 26.738 42.3806 26.738C44.1047 26.738 45.4293 25.8966 46.3542 24.2139C47.2791 22.5169 47.7472 20.0499 47.7586 16.8128V15.2941Z" fill="#FF0000"/>
<path d="M67.291 23.8503L72.9431 0.427807H78.6637L69.98 31.5722H64.619L55.9696 0.427807H61.6731L67.291 23.8503Z" fill="#FF0000"/>
<path d="M88.2449 31.5722H83.1066V0.427807H88.2449V31.5722Z" fill="#FF0000"/>
<path d="M109.781 18.0749H99.9156V26.4171H111.494V31.5722H94.7773V0.427807H111.46V5.62567H99.9156V13.0481H109.781V18.0749Z" fill="#FF0000"/>
<path d="M131.266 18.8449H121.401V31.5722H116.262V0.427807H132.499V5.62567H121.401V13.6684H131.266V18.8449Z" fill="#FF0000"/>
<path d="M142.372 26.4171H153.282V31.5722H137.233V0.427807H142.372V26.4171Z" fill="#FF0000"/>
<path d="M163.462 31.5722H158.324V0.427807H163.462V31.5722Z" fill="#FF0000"/>
<path d="M179.227 11.1658L183.903 0.427807H189.812L182.549 15.8717L190 31.5722H184.022L179.227 20.6631L174.431 31.5722H168.453L175.904 15.8717L168.642 0.427807H174.551L179.227 11.1658Z" fill="#FF0000"/>
</svg>
