<svg width="29" height="27" viewBox="0 0 29 27" fill="none" xmlns="http://www.w3.org/2000/svg">
<path fill-rule="evenodd" clip-rule="evenodd" d="M22 12.664C22 18.0382 17.71 22.328 12.5 22.328C7.29004 22.328 3 18.0382 3 12.664C3 7.28973 7.29004 3 12.5 3C17.71 3 22 7.28973 22 12.664ZM21.6315 21.3122C19.3503 23.7834 16.1032 25.328 12.5 25.328C5.59644 25.328 0 19.6581 0 12.664C0 5.66986 5.59644 0 12.5 0C19.4036 0 25 5.66986 25 12.664C25 15.2792 24.2175 17.7093 22.8768 19.7271L24.61 21.4828L24.6101 21.483L28.649 25.5724L27.2436 26.9953L23.2046 22.9058L23.2044 22.9056L21.6315 21.3122Z" fill="white"/>
</svg>
