<svg width="27" height="27" viewBox="0 0 27 27" fill="none" xmlns="http://www.w3.org/2000/svg">
<path fill-rule="evenodd" clip-rule="evenodd" d="M23.1562 13.5C23.1562 19.3895 18.5551 24 13.0781 24C7.6012 24 3 19.3895 3 13.5C3 7.61052 7.6012 3 13.0781 3C15.6867 3 18.0966 4.04589 19.9054 5.77772L18.3542 7.68596L25.4247 8.80039L23.1337 1.80623L21.8031 3.44323C19.4885 1.30216 16.4307 0 13.0781 0C5.85528 0 0 6.04416 0 13.5C0 20.9558 5.85528 27 13.0781 27C20.301 27 26.1562 20.9558 26.1562 13.5H23.1562ZM11.0781 8.94116V14.5V15.5H12.0781H17.0786V13.5H13.0781V8.94116H11.0781Z" fill="white"/>
</svg>
